<?xml version="1.0" encoding="UTF-8" standalone="no"?>
<!-- Created with Inkscape (http://www.inkscape.org/) -->

<svg
   width="300"
   height="300"
   viewBox="0 0 300 300"
   version="1.1"
   id="svg1"
   xml:space="preserve"
   xmlns="http://www.w3.org/2000/svg"
   xmlns:svg="http://www.w3.org/2000/svg"><defs
     id="defs1" /><g
     id="layer1"><rect
       style="fill:#000000;fill-opacity:1;stroke-width:1.08501"
       id="rect39"
       width="300"
       height="300"
       x="0"
       y="0" /><path
       id="path1"
       style="fill:#ffffff;fill-opacity:1"
       d="M 145.81055 41.21875 C 100.90676 41.219955 93.392578 82.267578 93.392578 82.267578 C 86.13309 86.51834 83.859375 92.671875 83.859375 92.671875 L 83.859375 112.46875 C 83.859375 121.24239 92.625 123.3125 92.625 123.3125 C 94.203125 129.125 99.78125 131.42188 99.78125 131.42188 L 99.78125 85.578125 C 108.40562 62.88368 122.3376 49.938227 145.81055 49.9375 L 145.8125 49.9375 C 169.28544 49.938227 183.21742 62.88368 191.8418 85.578125 L 191.8418 131.42188 C 191.8418 131.42188 197.41993 129.125 198.99805 123.3125 C 198.99805 123.3125 207.76367 121.24239 207.76367 112.46875 L 207.76367 92.671875 C 207.76367 92.671875 205.48996 86.51834 198.23047 82.267578 C 198.23047 82.267578 190.71627 41.219955 145.8125 41.21875 L 145.81055 41.21875 z M 145.80664 56.667969 C 131.31 56.667973 131.30859 56.676904 131.30859 57.541016 C 131.30859 58.423982 145.77434 65.706392 145.80664 65.722656 L 145.80664 65.728516 L 145.81055 65.726562 C 145.81056 65.726568 145.81641 65.728516 145.81641 65.728516 L 145.81641 65.722656 C 145.84873 65.706381 160.3125 58.423982 160.3125 57.541016 C 160.3125 56.676684 160.31436 56.667969 145.80664 56.667969 z M 123.90625 61.308594 C 123.03341 61.308594 119.29706 63.214837 119.28906 64.535156 C 119.28906 65.657573 136.07143 73.345542 145.80664 81.121094 L 145.80664 81.128906 C 145.80805 81.127779 145.80914 81.126127 145.81055 81.125 C 145.81235 81.126441 145.8146 81.127465 145.81641 81.128906 L 145.81641 81.121094 C 155.5516 73.345545 172.33398 65.657572 172.33398 64.535156 C 172.32598 63.214837 168.58768 61.308594 167.71484 61.308594 C 166.55505 61.308594 147.64742 72.378549 145.81055 72.390625 C 143.96509 72.372673 125.06574 61.308594 123.90625 61.308594 z M 115.08008 69.359375 C 114.65706 69.359375 110.45508 74.217498 110.45508 76.65625 C 110.45508 76.65625 140.49223 85.128202 142.39258 100.86133 L 142.39258 120.63867 C 142.39258 120.63867 143.45202 122.00977 145.81641 122.00977 C 148.17203 122.00495 149.23047 120.63867 149.23047 120.63867 L 149.23047 100.86133 C 151.13082 85.128203 181.16797 76.65625 181.16797 76.65625 C 181.16797 74.217498 176.96599 69.359375 176.54297 69.359375 C 172.56652 72.938173 152.88632 81.357656 145.81055 91.474609 C 138.73476 81.357656 119.05652 72.938173 115.08008 69.359375 z M 108.30859 81.958984 C 106.76172 81.958984 106.07617 85.417243 106.07617 86.089844 L 106.07617 153.48633 C 106.07617 155.29829 111.37298 164.33061 112.06445 161.75 L 112.06445 119.58984 C 112.06445 114.04792 106.96094 114.29943 106.96094 110.04297 C 106.96094 108.35431 112.06445 101.16877 112.06445 98.994141 L 112.06445 88.167969 C 121.0957 95.339844 123.22853 99.308594 133.96289 97.933594 C 133.96289 94.058468 109.66805 81.958984 108.30859 81.958984 z M 183.31445 81.958984 C 181.95499 81.958984 157.66016 94.058468 157.66016 97.933594 C 168.39453 99.308594 170.52539 95.339844 179.55664 88.167969 L 179.55664 98.994141 C 179.55664 101.16877 184.66211 108.35431 184.66211 110.04297 C 184.66211 114.29943 179.55664 114.04792 179.55664 119.58984 L 179.55664 161.75 C 180.24811 164.33061 185.54492 155.29829 185.54492 153.48633 L 185.54492 86.089844 C 185.54492 85.417243 184.86132 81.958984 183.31445 81.958984 z M 116.26562 99.578125 C 116.06251 102.23437 113.89062 107.0604 113.89062 108.51562 C 118.06816 112.10954 118.91701 113.11014 118.95117 129.07031 C 118.95176 129.3471 118.93754 130.08926 119.14062 130.14062 C 119.38544 130.14062 119.50407 129.9623 119.62695 129.81445 C 124.00401 124.54741 130.64436 121.95947 136.34375 120.51562 C 135.41237 113.66742 136.39065 104.75417 136.03125 103.90625 C 133.65625 104.79687 123.23437 107.625 116.26562 99.578125 z M 175.35742 99.578125 C 168.38867 107.625 157.9668 104.79687 155.5918 103.90625 C 155.2324 104.75417 156.21067 113.66742 155.2793 120.51562 C 160.97868 121.95947 167.61708 124.54741 171.99414 129.81445 C 172.11701 129.9623 172.23761 130.14062 172.48242 130.14062 C 172.6855 130.08926 172.67129 129.3471 172.67188 129.07031 C 172.70605 113.11014 173.55488 112.10954 177.73242 108.51562 C 177.73242 107.0604 175.56055 102.23437 175.35742 99.578125 z M 138.27148 126.45117 C 125.74367 128.45117 118.33984 137.46229 118.33984 145.45312 L 118.33984 168.91016 C 118.49452 169.42944 123.15731 174.65559 124.14062 172.77734 L 124.14062 146.55859 C 124.14062 144.21401 126.68556 135.60937 139.68555 132.14062 C 139.68555 132.14062 142.625 131.26395 142.625 129.54492 C 142.625 127.64623 139.4672 126.45117 138.27148 126.45117 z M 153.34961 126.45117 C 152.15389 126.45117 148.99805 127.64623 148.99805 129.54492 C 148.99805 131.26395 151.93555 132.14062 151.93555 132.14062 C 164.93555 135.60937 167.48242 144.21401 167.48242 146.55859 L 167.48242 172.77734 C 168.46574 174.65559 173.12657 169.42944 173.28125 168.91016 L 173.28125 145.45312 C 173.28125 137.46229 165.87743 128.45117 153.34961 126.45117 z M 145.80664 138.85938 C 130.31371 138.86419 130.31641 149.96875 130.31641 149.96875 L 130.31641 178.90625 C 130.31641 179.54707 134.09172 182.71875 136.45703 182.71875 L 136.45703 150.23438 C 136.45703 149.17054 138.82994 144.81663 145.80664 144.8125 C 152.79102 144.8125 155.16602 149.17003 155.16602 150.23438 L 155.16602 182.71875 C 157.53133 182.71875 161.30664 179.54707 161.30664 178.90625 L 161.30664 149.96875 C 161.30664 149.96875 161.30964 138.85938 145.80664 138.85938 z M 145.80469 151.65625 C 143.22503 151.66533 142.36719 154.15299 142.36719 154.51562 L 142.36719 186.94141 C 142.36719 187.26584 144.01316 187.93359 145.81836 187.93359 C 147.61812 187.93019 149.25391 187.26501 149.25391 186.94141 L 149.25391 154.51562 C 149.25391 154.15232 148.39539 151.65625 145.80469 151.65625 z " /><path
       id="path29"
       style="fill:#ffffff;fill-opacity:1"
       d="m 83.697266,197.83393 -4.859375,0.004 c 0,1.32401 1.324218,0.80036 1.324218,2.64648 v 19.60157 c 0,1.42736 -1.326171,2.02658 -1.326171,3.47461 l 7.777343,-0.006 c 0,-0.742 -0.927734,-1.24194 -0.927734,-2.01172 v -12.97071 c 0,0 7.329774,10.03531 8.681641,13.16602 v 0.004 c 2.98e-4,-7e-4 0.0017,-0.001 0.002,-0.002 2.01e-4,-4.6e-4 -2.02e-4,-0.001 0,-0.002 1.351862,-3.13071 8.681639,-13.16602 8.681639,-13.16602 v 12.97071 c 0,0.76978 -0.92773,1.26972 -0.92773,2.01172 l 7.77734,0.006 c 0,-1.44803 -1.32422,-2.04725 -1.32422,-3.47461 v -19.60157 c 0,-1.84612 1.32227,-1.32247 1.32227,-2.64648 l -4.85938,-0.004 c -2.1472,2.14719 -7.749203,8.26452 -10.669919,13.32227 -2.920579,-5.05792 -8.524562,-11.17496 -10.671875,-13.32227 z" /><path
       id="path29-4"
       style="fill:#ffffff;fill-opacity:1"
       d="m 139.04883,197.83393 -4.85938,0.004 c 0,1.32401 1.32422,0.80036 1.32422,2.64648 v 19.60157 c 0,1.42736 -1.32617,2.02658 -1.32617,3.47461 l 7.77734,-0.006 c 0,-0.742 -0.92773,-1.24194 -0.92773,-2.01172 v -12.97071 c 0,0 7.32977,10.03531 8.68164,13.16602 v 0.004 c 3e-4,-7e-4 0.002,-10e-4 0.002,-0.002 2e-4,-4.6e-4 -2e-4,-0.001 0,-0.002 1.35186,-3.13071 8.68164,-13.16602 8.68164,-13.16602 v 12.97071 c 0,0.76978 -0.92773,1.26972 -0.92773,2.01172 l 7.77734,0.006 c 0,-1.44803 -1.32422,-2.04725 -1.32422,-3.47461 v -19.60157 c 0,-1.84612 1.32227,-1.32247 1.32227,-2.64648 l -4.85938,-0.004 c -2.1472,2.14719 -7.7492,8.26452 -10.66992,13.32227 -2.92058,-5.05792 -8.52456,-11.17496 -10.67188,-13.32227 z" /><path
       id="path30"
       style="fill:#ffffff;fill-opacity:1"
       d="m 117.83423,197.83393 c 0,0.67607 1.48047,1.30444 1.48047,2.37891 v 21.39063 c 0,1.06537 -1.20312,1.11605 -1.20312,2.25 h 3.87304 0.002 3.87304 c 0,-1.13395 -1.20312,-1.18463 -1.20312,-2.25 v -21.39063 c 0,-1.07447 1.48047,-1.70284 1.48047,-2.37891 l -4.15039,0.004 h -0.002 z" /><path
       id="path30-3"
       style="fill:#ffffff;fill-opacity:1"
       d="m 172.875,197.83393 c 0,0.67607 1.48047,1.30444 1.48047,2.37891 v 21.39063 c 0,1.06537 -1.20312,1.11605 -1.20312,2.25 h 3.87304 0.002 3.87304 c 0,-1.13395 -1.20312,-1.18463 -1.20312,-2.25 v -21.39063 c 0,-1.07447 1.48047,-1.70284 1.48047,-2.37891 l -4.15039,0.004 h -0.002 z" /><path
       style="fill:#ffffff;fill-opacity:1"
       d="m 189.82812,198.04687 c 0,-0.58047 0.0269,0 14.125,0 9.35985,1.15625 10.71962,13.80956 3.32813,17.125 0.625,1.89062 3.875,6.25 3.875,6.25 1.99979,1.82853 2.15625,1.48152 2.15625,2.34375 h -7.54688 c -0.82688,-1.8192 -4.34375,-6.60399 -4.34375,-7.4375 -4.69341,0.0611 -3.16978,-0.13939 -4.6875,0 -0.2265,0.17678 0,0.81076 0,5.29688 0,0.98589 0.9375,1.30075 0.9375,2.1875 h -7.85937 c 0,-1.12524 1.32812,-1.369 1.32812,-2.54688 v -20.75 c 0,-0.9972 -1.3125,-1.75364 -1.3125,-2.46875 z"
       id="path31" /><path
       style="fill:#000000;fill-opacity:1"
       d="m 196.65625,203.64062 v 7.8125 c 0,0 5.44159,0 7.28125,0 3.46875,-2.73437 3.67491,-5.45312 0,-7.79687 z"
       id="path32" /><path
       style="fill:#ffffff;fill-opacity:1;stroke-width:0.435609"
       d="m 140.5068,232.3428 c 0,-0.25285 0.0117,0 6.15298,0 4.07723,0.50368 4.66956,6.01557 1.44976,7.45981 0.27226,0.82357 1.68799,2.72255 1.68799,2.72255 0.87112,0.79652 0.93928,0.64536 0.93928,1.02096 h -3.28749 c -0.3602,-0.79246 -1.89218,-2.87676 -1.89218,-3.23984 -2.04449,0.0266 -1.38078,-0.0607 -2.04191,0 -0.0987,0.077 0,0.35317 0,2.30737 0,0.42946 0.40838,0.56661 0.40838,0.95289 H 140.5 c 0,-0.49016 0.57854,-0.59635 0.57854,-1.10944 v -9.03889 c 0,-0.43439 -0.57174,-0.7639 -0.57174,-1.07541 z"
       id="path31-1" /><path
       style="fill:#000000;fill-opacity:1;stroke-width:0.435609"
       d="m 143.4812,234.67407 v 3.4032 c 0,0 2.3704,0 3.17177,0 1.51102,-1.19112 1.60083,-2.37543 0,-3.39639 z"
       id="path32-3" /><ellipse
       style="fill:#ffffff;fill-opacity:1"
       id="path33"
       cx="128.32812"
       cy="237.82812"
       rx="6.234375"
       ry="5.859375" /><ellipse
       style="fill:#000000;fill-opacity:1;stroke-width:0.497623"
       id="path33-2"
       cx="128.32812"
       cy="237.82812"
       rx="3.102375"
       ry="2.915766" /><path
       style="fill:#ffffff;fill-opacity:1"
       d="m 107.7233,232.23042 v 11.00435 h 3.38085 v -3.74546 h 4.09901 v -2.60746 h -4.39732 v -1.8451 l 6.24701,0.0234 -0.005,-2.82843 z"
       id="path34" /><path
       style="fill:#ffffff;fill-opacity:1"
       d="m 174.19141,232.23042 h 8.71484 v 2.59375 h -5.76563 v 1.9375 h 4.3125 c 0,0 0.0384,2.03659 0,2.04687 -0.0384,0.0103 -4.34375,0 -4.34375,0 v 1.51563 h 5.80078 v 2.96094 h -8.71484 z"
       id="path35" /><path
       id="path36"
       style="fill:#ffffff;fill-opacity:1"
       d="M 83.097656 234.90234 C 82.147717 234.90234 81.308754 236.35755 81.306641 236.8125 C 81.306638 236.81308 81.306641 236.81388 81.306641 236.81445 C 81.308754 237.2694 82.147717 238.72266 83.097656 238.72266 L 98.023438 238.72266 C 98.509894 238.72266 99.09409 237.22629 99.095703 236.81445 C 99.095705 236.81388 99.095703 236.81307 99.095703 236.8125 C 99.09409 236.40066 98.509894 234.90234 98.023438 234.90234 L 83.097656 234.90234 z " /><path
       id="path36-6"
       style="fill:#ffffff;fill-opacity:1"
       d="m 208.29629,234.90234 c 0.94994,0 1.78891,1.45521 1.79102,1.91016 0,5.8e-4 0,0.001 0,0.002 -0.002,0.45495 -0.84108,1.90821 -1.79102,1.90821 h -14.92578 c -0.48645,0 -1.07065,-1.49637 -1.07226,-1.90821 0,-5.7e-4 0,-0.001 0,-0.002 0.002,-0.41184 0.58581,-1.91016 1.07226,-1.91016 z" /><path
       id="path36-6-8"
       style="fill:#ffffff;fill-opacity:1;stroke-width:0.807584"
       d="m 56.174924,209.03635 c -0.619543,0 -1.166712,1.45521 -1.168088,1.91016 0,5.8e-4 0,0.001 0,0.002 0.0013,0.45495 0.548545,1.90821 1.168088,1.90821 h 9.734468 c 0.317259,0 0.69827,-1.49637 0.69932,-1.90821 0,-5.7e-4 0,-0.001 0,-0.002 -0.0013,-0.41184 -0.382061,-1.91016 -0.69932,-1.91016 z" /><path
       id="path36-6-8-4"
       style="fill:#ffffff;fill-opacity:1;stroke-width:0.807584"
       d="m 236.80879,209.03635 c 0.61954,0 1.16671,1.45521 1.16809,1.91016 0,5.8e-4 0,0.001 0,0.002 -0.001,0.45495 -0.54855,1.90821 -1.16809,1.90821 h -9.73447 c -0.31726,0 -0.69827,-1.49637 -0.69932,-1.90821 0,-5.7e-4 0,-0.001 0,-0.002 0.001,-0.41184 0.38206,-1.91016 0.69932,-1.91016 z" /><path
       id="path38"
       style="fill:#ffffff;fill-opacity:1"
       d="m 162.79688,232.23046 c -3.44315,0 -6.23438,2.62333 -6.23438,5.85938 0,3.23604 2.79123,5.85937 6.23438,5.85937 1.73617,-0.004 3.39181,-0.68873 4.56835,-1.88867 0,-4.60159 0.10547,-4.43164 0.25,-4.67774 0,-0.43403 -0.23794,0.0859 -4.74609,0.0859 v 1.91016 h 2.02148 c 0,1.58091 -1.52481,1.4375 -2.16601,1.4375 -3.78641,0 -3.78336,-5.58008 0,-5.58008 1.43975,0 1.91102,1.21551 2.4082,1.22656 0.54347,0 1.69157,-2.75078 1.48047,-2.87109 -0.0182,-0.0617 -0.0298,-0.11178 -0.043,-0.16406 -1.0847,-0.7761 -2.41017,-1.19666 -3.77343,-1.19727 z" /><path
       style="fill:#000000;fill-opacity:1"
       d="M 66.60062,210.91669 H 80.168231 Z"
       id="path39" /></g></svg>
